# xmcd
#
# Track frame offsets:
#	150
#	11997
#	23643
#	38163
#	51523
#	63790
#	75859
#	87272
#	97886
#	109998
#	121991
#	134082
#	145498
#	154990
#	166945
#	181838
#	198198
#
# Disc length: 2851 seconds
#
# Revision: 1
# Processed by: cddbd v1.5.2PL0 Copyright (c) Steve Scherf et al.
# Submitted via: audiograbber 1.83.01
#
DISCID=df0b2111
DTITLE=Various Artist - Pure... Country - CD1
DYEAR=2010
DGENRE=Country
TTITLE0=Johnny Cash - I Walk The Line
TTITLE1=Willie Nelson - On The Road Again
TTITLE2=John Denver - Take Me Home, Country Roads
TTITLE3=Lynn Anderson - (I Never Promised You A) Rose Garden
TTITLE4=Dolly Parton - Jolene
TTITLE5=Tally Wynette - Stand By Your Man
TTITLE6=Roy Orbison - Blue Bayou
TTITLE7=Jim Reeves - He'll Have To Go
TTITLE8=Eddie Arnold - Make The World Go Away
TTITLE9=Skeeter Davis - The End Of The World
TTITLE10=Bobby Bare - The Streets Of Baltimore
TTITLE11=Don Gibson - Oh, Lonesome Me
TTITLE12=Barbara Mandrell - Tonight My Baby's Coming Home
TTITLE13=Johnny Paycheck - Take This Job And Shove It
TTITLE14=Don Williams - Back In My Younger Days
TTITLE15=Earl Thomas Conley and Emmylou Harris - Happy Endings
TTITLE16=Smokie - Living Next Door To Alice
EXTD=
EXTT0=
EXTT1=
EXTT2=
EXTT3=
EXTT4=
EXTT5=
EXTT6=
EXTT7=
EXTT8=
EXTT9=
EXTT10=
EXTT11=
EXTT12=
EXTT13=
EXTT14=
EXTT15=
EXTT16=
PLAYORDER=
